<svg id="Layer_1" data-name="Layer 1" xmlns="http://www.w3.org/2000/svg" viewBox="0 0 197.9 200.15"><defs><style>.cls-1{fill:#dee0df;}</style></defs><title>Search Icon</title><path class="cls-1" d="M338.52,379l-4.17-4.31c-21.74,18.07-46.31,24.7-73.71,18.07-20-4.85-35.89-16.25-47.59-33.27-23.5-34.16-17.58-81.83,13.46-108.75,31.84-27.61,77.9-27.23,108.37.66s38.49,77,7,115.78l3.72,4c.64-.15,1.05-.13,1.25-.32,7.71-7.09,8.35-7.08,15.65.29q15.29,15.45,30.55,30.92c4.74,4.81,4.76,7.47.13,12.22-4.42,4.53-8.84,9.06-13.36,13.49-3.48,3.4-6.56,3.5-10,.1Q352.34,410.4,335,392.73c-3.11-3.15-3.11-6.42-.15-9.7C336,381.81,337.07,380.6,338.52,379ZM210.94,312.76c-.05,38.89,30.86,70.31,69.25,70.4,38.18.08,69.68-31.63,69.7-70.16,0-38.71-31.13-70.23-69.45-70.27C241.93,242.68,211,273.85,210.94,312.76ZM347.88,388c9.12,8.83,18.28,17.72,27.73,26.88l5.9-6.6,1.47-1.17c-8.15-7.6-16.34-15.16-24.41-22.83-1.19-1.12-1.88-2.76-3-4.49Z" transform="translate(-198.69 -230.26)"/><path class="cls-1" d="M277.77,267.4c4.84-.13,7.73,1.32,7.92,5.08s-2.45,5.39-6.16,5.63c-14.63.94-24.84,8.25-30.74,21.64-1.43,3.23-3.23,6.17-7.43,4.54-4.43-1.7-3.89-5.05-2.46-8.67C245.27,279.51,262.22,267.54,277.77,267.4Z" transform="translate(-198.69 -230.26)"/><path class="cls-1" d="M248.27,324.05c-1.41,1.06-3.24,3.44-5.43,3.85-3.48.65-5.46-2-5.56-5.4s1.7-5.31,5.09-5.45C246.07,316.91,247.64,319.16,248.27,324.05Z" transform="translate(-198.69 -230.26)"/></svg>